<svg width="328" height="338" viewBox="0 0 328 338" fill="none" xmlns="http://www.w3.org/2000/svg">
<path fill-rule="evenodd" clip-rule="evenodd" d="M161.668 77.3026C183.727 80.8041 205.318 78.3537 226.51 85.4949C256.653 95.6526 294.18 99.1939 309.874 127.245C325.82 155.747 314.91 192.332 303.423 222.97C292.362 252.471 275.94 284.189 246.861 295.31C219.027 305.956 191.079 281.676 161.668 277.185C138.481 273.645 115.314 279.911 93.2469 271.856C64.2763 261.28 29.9642 252.2 16.3634 224.141C2.47066 195.48 13.2976 160.708 24.9969 131.053C36.1035 102.901 52.3837 73.2234 80.2223 62.2749C106.6 51.901 133.722 72.8668 161.668 77.3026Z" fill="#42E2B8"/>
<path fill-rule="evenodd" clip-rule="evenodd" d="M274.994 118.456C289.609 143.152 305.492 170.167 300.851 198.601C296.02 228.194 273.778 251.619 250.291 269.791C227.03 287.789 199.232 299.253 170.005 299.84C141.077 300.422 112.716 290.636 89.5543 273.022C67.1585 255.989 45.8766 232.312 43.9204 203.952C42.0695 177.117 72.3544 160.027 79.9836 134.266C87.4388 109.093 67.1971 74.3134 87.237 57.6875C107.155 41.1626 136.391 63.9836 162.006 66.2168C183.328 68.0758 205.067 60.6531 224.546 69.6586C246.208 79.6738 262.729 97.7298 274.994 118.456Z" fill="#8884FF"/>
</svg>
